<svg xmlns="http://www.w3.org/2000/svg" xmlns:xlink="http://www.w3.org/1999/xlink" width="500" zoomAndPan="magnify" viewBox="0 0 375 374.999991" height="500" preserveAspectRatio="xMidYMid meet" version="1.0"><defs><clipPath id="6c446a4d6a"><path d="M 1.625 0 L 236.375 0 L 236.375 287.25 L 1.625 287.25 Z M 1.625 0 " clip-rule="nonzero"/></clipPath><clipPath id="106f585f19"><path d="M 135.625 119 L 276 119 L 276 337.609375 L 135.625 337.609375 Z M 135.625 119 " clip-rule="nonzero"/></clipPath><clipPath id="06ac23cc3a"><path d="M 215 234 L 374.875 234 L 374.875 337.609375 L 215 337.609375 Z M 215 234 " clip-rule="nonzero"/></clipPath><clipPath id="1f8e9ee309"><path d="M 238 62.359375 L 326 62.359375 L 326 222 L 238 222 Z M 238 62.359375 " clip-rule="nonzero"/></clipPath><clipPath id="fb720acd94"><path d="M 265 278 L 326 278 L 326 337.609375 L 265 337.609375 Z M 265 278 " clip-rule="nonzero"/></clipPath></defs><g clip-path="url(#6c446a4d6a)"><path fill="#737373" d="M 208.167969 116.097656 L 236.570312 57.300781 C 229.066406 52.757812 220.589844 48.941406 211.136719 45.855469 L 221.367188 0 L 196.023438 41.71875 L 161.175781 99.4375 C 166.828125 100.175781 172.414062 101.289062 177.929688 102.765625 C 188.953125 105.730469 199.027344 110.175781 208.167969 116.097656 Z M 190.878906 148.210938 L 138.035156 204.066406 C 140.679688 206.144531 142.003906 208.613281 142.003906 211.472656 C 142.003906 215.800781 139.332031 219.21875 133.988281 221.722656 C 129.972656 223.609375 124.636719 224.785156 117.988281 225.25 L 116.46875 226.859375 L 62.574219 283.820312 C 75.433594 285.949219 88.878906 287.015625 102.910156 287.015625 C 126.972656 287.015625 147.90625 283.308594 165.730469 275.90625 C 183.550781 268.503906 197.25 258.078125 206.832031 244.625 C 216.410156 231.183594 221.199219 215.570312 221.199219 197.796875 C 221.199219 183.667969 217.40625 172.277344 209.839844 163.613281 C 204.273438 157.25 197.953125 152.117188 190.878906 148.210938 Z M 99.445312 191.042969 L 107.804688 172.804688 C 109.945312 168.117188 107.175781 162.660156 102.128906 161.628906 L 56.703125 152.355469 C 51.476562 151.289062 48.722656 145.5 51.214844 140.78125 C 62.957031 118.539062 94.351562 58.84375 102.214844 42.394531 C 96.496094 43.914062 91.042969 45.753906 85.867188 47.902344 C 68.042969 55.308594 54.398438 65.796875 44.9375 79.347656 C 35.464844 92.910156 30.734375 108.695312 30.734375 126.695312 C 30.734375 141.054688 34.574219 152.621094 42.265625 161.390625 C 49.949219 170.167969 58.914062 176.664062 69.160156 180.875 C 77.488281 184.300781 87.582031 187.691406 99.445312 191.042969 Z M 83.628906 225.542969 L 57.347656 282.894531 C 53.4375 282.140625 49.578125 281.296875 45.773438 280.347656 C 27.949219 275.90625 13.242188 270.039062 1.660156 262.746094 L 32.070312 203.265625 C 49.109375 213.296875 66.65625 219.929688 84.71875 223.167969 L 83.628906 225.542969 " fill-opacity="1" fill-rule="nonzero"/></g><path fill="#0cc0df" d="M 149.476562 143.511719 L 105.996094 134.375 C 103.394531 133.824219 101.988281 130.976562 103.152344 128.578125 L 144.117188 43.726562 L 147.898438 35.886719 C 147.898438 35.886719 146.339844 35.882812 143.589844 36.003906 C 136.761719 36.261719 129.609375 36.894531 122.21875 38.058594 L 120.789062 38.40625 C 115.042969 39.347656 108.734375 40.632812 102.214844 42.394531 L 100.785156 45.277344 C 100.503906 45.667969 100.253906 46.082031 100.046875 46.523438 C 92.746094 61.976562 63.121094 118.234375 51.214844 140.78125 C 48.722656 145.5 51.476562 151.289062 56.703125 152.355469 L 102.128906 161.628906 C 107.175781 162.660156 109.945312 168.117188 107.804688 172.804688 L 83.628906 225.542969 L 57.347656 282.894531 L 152.011719 149.851562 C 153.675781 147.441406 152.351562 144.117188 149.476562 143.511719 " fill-opacity="1" fill-rule="nonzero"/><g clip-path="url(#106f585f19)"><path fill="#0cc0df" d="M 170.484375 337.273438 C 171.027344 336.851562 171.429688 336.222656 171.792969 335.386719 C 188.871094 295.882812 206 256.398438 223.121094 216.914062 C 225.382812 211.691406 227.660156 206.472656 230.171875 200.695312 C 230.859375 201.804688 231.253906 202.3125 231.503906 202.878906 C 233.960938 208.40625 236.4375 213.929688 238.808594 219.488281 C 239.566406 221.277344 240.640625 222.015625 242.644531 221.996094 C 252.089844 221.914062 261.53125 221.988281 270.976562 221.96875 C 272.214844 221.96875 273.457031 221.769531 275.269531 221.617188 C 260.460938 187.4375 245.851562 153.726562 231.25 120.007812 C 230.953125 119.941406 230.65625 119.871094 230.363281 119.804688 C 198.824219 192.214844 167.273438 264.625 135.625 337.273438 Z M 170.484375 337.273438 " fill-opacity="1" fill-rule="nonzero"/></g><g clip-path="url(#06ac23cc3a)"><path fill="#0cc0df" d="M 304.550781 265.582031 C 307.429688 265.566406 308.949219 266.398438 310.128906 269.15625 C 319.527344 291.148438 329.105469 313.050781 338.585938 335.011719 C 339.046875 336.085938 339.574219 336.832031 340.363281 337.273438 L 374.96875 337.273438 C 374.566406 336.203125 374.355469 335.589844 374.101562 334.996094 C 369.472656 324.246094 364.847656 313.492188 360.199219 302.75 C 350.742188 280.898438 341.269531 259.042969 331.824219 237.183594 C 331.078125 235.457031 330.320312 234.277344 327.992188 234.28125 C 295.886719 234.375 263.785156 234.355469 231.675781 234.316406 C 229.832031 234.316406 228.847656 234.875 228.109375 236.65625 C 225.027344 244.078125 221.769531 251.425781 218.589844 258.8125 C 217.679688 260.929688 216.808594 263.066406 215.734375 265.648438 C 217.714844 265.648438 219.09375 265.648438 220.46875 265.648438 C 248.488281 265.640625 276.515625 265.671875 304.550781 265.582031 Z M 304.550781 265.582031 " fill-opacity="1" fill-rule="nonzero"/></g><g clip-path="url(#1f8e9ee309)"><path fill="#0cc0df" d="M 325.457031 221.789062 C 323.039062 221.789062 321.472656 221.789062 319.910156 221.789062 C 310.867188 221.789062 301.824219 221.710938 292.78125 221.835938 C 290.445312 221.871094 289.257812 221.085938 288.335938 218.949219 C 274.683594 187.457031 260.949219 156.007812 247.238281 124.546875 C 244.378906 117.996094 241.484375 111.464844 238.726562 104.875 C 238.324219 103.914062 238.207031 102.507812 238.601562 101.585938 C 243.894531 89.171875 249.289062 76.8125 254.683594 64.445312 C 254.933594 63.863281 255.460938 63.402344 256.101562 62.5625 C 279.207031 115.613281 302.160156 168.316406 325.457031 221.789062 Z M 325.457031 221.789062 " fill-opacity="1" fill-rule="nonzero"/></g><g clip-path="url(#fb720acd94)"><path fill="#0cc0df" d="M 289.839844 335.75 C 290.148438 336.46875 290.519531 336.941406 290.960938 337.273438 L 325.464844 337.273438 C 325.253906 336.664062 325.128906 336.25 324.964844 335.875 C 316.898438 317.21875 308.851562 298.558594 300.664062 279.960938 C 300.261719 279.050781 298.585938 278.191406 297.492188 278.171875 C 288.75 278.027344 280.003906 278.09375 271.257812 278.09375 C 269.300781 278.09375 267.339844 278.09375 265 278.09375 C 265.261719 279.128906 265.308594 279.523438 265.46875 279.875 C 273.59375 298.488281 281.765625 317.09375 289.839844 335.75 Z M 289.839844 335.75 " fill-opacity="1" fill-rule="nonzero"/></g></svg>